<?xml version="1.0" standalone="no"?>
<!DOCTYPE svg PUBLIC "-//W3C//DTD SVG 20010904//EN"
 "http://www.w3.org/TR/2001/REC-SVG-20010904/DTD/svg10.dtd">
<svg version="1.0" xmlns="http://www.w3.org/2000/svg"
 width="310.000000pt" height="163.000000pt" viewBox="0 0 310.000000 163.000000"
 preserveAspectRatio="xMidYMid meet">
<metadata>
Created by potrace 1.16, written by Peter Selinger 2001-2019
</metadata>
<g transform="translate(0.000000,163.000000) scale(0.100000,-0.100000)"
fill="#000000" stroke="none">
<path d="M295 1034 c-84 -30 -147 -105 -161 -192 -15 -92 48 -201 140 -243 51
-23 153 -25 204 -3 123 51 180 199 123 317 -53 109 -189 163 -306 121z m137
-4 c75 -21 137 -102 138 -179 0 -96 -88 -181 -187 -181 -134 0 -224 119 -184
242 15 44 68 96 117 113 48 17 68 18 116 5z"/>
<path d="M414 1010 c41 -13 85 -58 92 -95 3 -19 -1 -47 -10 -68 -35 -85 -149
-103 -213 -33 -27 30 -33 44 -33 82 0 40 5 51 36 80 19 19 30 34 24 34 -7 0
-29 -17 -50 -38 -50 -50 -60 -97 -34 -160 45 -108 179 -135 267 -53 36 34 41
44 45 94 4 45 0 62 -18 92 -22 36 -85 76 -117 74 -10 0 -6 -4 11 -9z"/>
<path d="M315 977 c-18 -15 -28 -36 -32 -64 -5 -37 -2 -45 25 -73 52 -51 131
-39 157 24 20 47 4 101 -35 121 -39 20 -44 19 -20 -5 25 -25 26 -52 2 -73 -24
-22 -55 -21 -75 1 -22 25 -21 48 3 72 27 27 7 25 -25 -3z"/>
<path d="M890 915 c0 -42 -2 -45 -19 -35 -30 16 -50 12 -76 -15 -17 -16 -25
-35 -25 -60 0 -25 8 -44 25 -60 28 -29 42 -31 73 -9 12 8 22 10 22 5 0 -6 5
-11 10 -11 6 0 10 45 10 115 0 70 -4 115 -10 115 -5 0 -10 -20 -10 -45z"/>
<path d="M1360 880 c-8 -5 -23 -7 -32 -4 -16 5 -18 -5 -18 -105 0 -67 4 -111
10 -111 6 0 10 18 10 40 0 43 2 45 30 30 45 -24 100 38 85 97 -13 53 -49 76
-85 53z"/>
<path d="M2520 870 c-15 -15 -20 -28 -15 -43 10 -34 12 -107 3 -107 -17 0 -8
-50 11 -60 58 -30 147 22 111 65 -6 8 -33 15 -58 17 -34 2 -48 7 -50 20 -2 13
5 17 35 20 43 3 69 38 52 70 -8 15 -6 18 12 18 35 0 19 7 -33 14 -40 6 -50 4
-68 -14z"/>
</g>
</svg>
